<svg xmlns="http://www.w3.org/2000/svg" version="1.1" xmlns:xlink="http://www.w3.org/1999/xlink" xmlns:svgjs="http://svgjs.dev/svgjs" viewBox="0 0 2400 800" opacity="1"><defs><linearGradient x1="50%" y1="0%" x2="50%" y2="100%" id="sssurf-grad"><stop stop-color="#ed1e69" stop-opacity="1" offset="0%"></stop><stop stop-color="#662d8c" stop-opacity="1" offset="100%"></stop></linearGradient></defs><g fill="url(#sssurf-grad)" transform="matrix(1,0,0,1,4.3314208984375,324.83876037597656)"><path d="M-10,10C92.08333333333334,25,277.9166666666667,89.5,480,82C682.0833333333333,74.5,760,-18.083333333333336,960,-26C1160,-33.916666666666664,1240,48.166666666666664,1440,44C1640,39.833333333333336,1720,-42.25,1920,-46C2120,-49.75,2247.9166666666665,-66.91666666666666,2400,26C2552.0833333333335,118.91666666666666,3254.1666666666665,217.91666666666669,2650,400C2045.8333333333335,582.0833333333333,156.25,795.8333333333334,-500,900" transform="matrix(1,0,0,1,0,25)" opacity="0.05"></path><path d="M-10,10C92.08333333333334,25,277.9166666666667,89.5,480,82C682.0833333333333,74.5,760,-18.083333333333336,960,-26C1160,-33.916666666666664,1240,48.166666666666664,1440,44C1640,39.833333333333336,1720,-42.25,1920,-46C2120,-49.75,2247.9166666666665,-66.91666666666666,2400,26C2552.0833333333335,118.91666666666666,3254.1666666666665,217.91666666666669,2650,400C2045.8333333333335,582.0833333333333,156.25,795.8333333333334,-500,900" transform="matrix(1,0,0,1,0,50)" opacity="0.53"></path><path d="M-10,10C92.08333333333334,25,277.9166666666667,89.5,480,82C682.0833333333333,74.5,760,-18.083333333333336,960,-26C1160,-33.916666666666664,1240,48.166666666666664,1440,44C1640,39.833333333333336,1720,-42.25,1920,-46C2120,-49.75,2247.9166666666665,-66.91666666666666,2400,26C2552.0833333333335,118.91666666666666,3254.1666666666665,217.91666666666669,2650,400C2045.8333333333335,582.0833333333333,156.25,795.8333333333334,-500,900" transform="matrix(1,0,0,1,0,75)" opacity="1.00"></path></g></svg>